<svg xmlns="http://www.w3.org/2000/svg" viewBox="0 0 54 54"><defs><style>.cls-1,.cls-2{fill:none;}.cls-2{stroke:#ec1d24;stroke-linecap:round;stroke-linejoin:round;stroke-width:2px;}</style></defs><title>phone</title><g id="Layer_2" data-name="Layer 2"><g id="Layer_1-2" data-name="Layer 1"><path class="cls-1" d="M0,0H54V54H0Z"/><path class="cls-2" d="M11.25,9h9l4.5,11.25-5.62,3.38A24.71,24.71,0,0,0,30.38,34.88l3.37-5.63L45,33.75v9a4.49,4.49,0,0,1-4.5,4.5A36,36,0,0,1,6.75,13.5,4.49,4.49,0,0,1,11.25,9"/><path class="cls-2" d="M33.75,15.75a4.49,4.49,0,0,1,4.5,4.5"/><path class="cls-2" d="M33.75,6.75a13.49,13.49,0,0,1,13.5,13.5"/></g></g></svg>